<svg id="Elementos" xmlns="http://www.w3.org/2000/svg" xmlns:xlink="http://www.w3.org/1999/xlink" viewBox="0 0 8 12"><defs><style>.cls-1{fill:url(#IUUI_Gradient);}</style><linearGradient id="IUUI_Gradient" x1="-1348.41421" y1="228.81309" x2="-1341" y2="236.2273" gradientTransform="translate(-226.2273 -1339) rotate(-90)" gradientUnits="userSpaceOnUse"><stop offset="0" stop-color="#782cc9"/><stop offset="1" stop-color="#f61067"/></linearGradient></defs><path class="cls-1" d="M0,4V6A2,2,0,0,0,2,8H2a2,2,0,0,1,2,2H4a2,2,0,0,0,2,2H8V10A2,2,0,0,0,6,8H4V6A2,2,0,0,1,6,4H6A2,2,0,0,0,8,2V0H6A2,2,0,0,0,4,2V4H0Z"/></svg>