<svg id="Elementos" xmlns="http://www.w3.org/2000/svg" viewBox="0 0 50 50"><defs><style>.cls-1{fill:#23231a;}</style></defs><path class="cls-1" d="M35.60663,14.39337a15,15,0,1,0,0,21.2132A15,15,0,0,0,35.60663,14.39337ZM17.22186,17.2218a10.941,10.941,0,0,1,6.42688-3.12866,10.74693,10.74693,0,0,1-9.55554,9.55554A10.941,10.941,0,0,1,17.22186,17.2218ZM14.33264,27.63849A14.74383,14.74383,0,0,0,27.63849,14.33258a10.923,10.923,0,0,1,8.02893,8.02893A14.744,14.744,0,0,0,22.36151,35.66736a10.92306,10.92306,0,0,1-8.02887-8.02887ZM32.7782,32.77814a10.94083,10.94083,0,0,1-6.42694,3.12866,10.74688,10.74688,0,0,1,9.5556-9.55548A10.94106,10.94106,0,0,1,32.7782,32.77814Z"/></svg>