<svg id="Elementos" xmlns="http://www.w3.org/2000/svg" viewBox="0 0 50 50"><defs><style>.cls-1{fill:#23231a;}</style></defs><path class="cls-1" d="M37.17157,22.17157l-7.07108-7.07108a2,2,0,0,0-2.82842,0l-1.41422,1.41422L32.34314,23H12a2,2,0,0,0-2,2v2H32.34314l-5.07108,5.07108a2,2,0,0,0,0,2.82842l1.41422,1.41422,8.48529-8.48529L40,25Z"/><path class="cls-1" d="M37.17157,22.17157l-7.07108-7.07108a2,2,0,0,0-2.82842,0l-1.41422,1.41422L32.34314,23H12a2,2,0,0,0-2,2v2H32.34314l-5.07108,5.07108a2,2,0,0,0,0,2.82842l1.41422,1.41422,8.48529-8.48529L40,25Z"/></svg>