<svg id="Elementos" xmlns="http://www.w3.org/2000/svg" viewBox="0 0 50 50"><defs><style>.cls-1{fill:#23231a;}</style></defs><path class="cls-1" d="M40,24H36V10h2a2,2,0,0,1,2,2Zm0,4H36v2a2,2,0,0,0,2,2h2ZM24,28a5.97555,5.97555,0,0,0-2,.34875A5.997,5.997,0,0,1,26,34v6h4V34A6,6,0,0,0,24,28Zm0-10a3.9588,3.9588,0,0,0-2,.55475,3.96739,3.96739,0,0,1,0,6.89044A3.95885,3.95885,0,0,0,24,26a4,4,0,0,0,0-8ZM16,28h0a6,6,0,0,0-6,6v6H22V34A6,6,0,0,0,16,28Zm0-10h0a4,4,0,0,0-4,4h0a4,4,0,0,0,4,4h0a4,4,0,0,0,4-4h0A4,4,0,0,0,16,18Z"/></svg>