<svg id="Elementos" xmlns="http://www.w3.org/2000/svg" viewBox="0 0 50 50"><defs><style>.cls-1{fill:#23231a;}</style></defs><path class="cls-1" d="M17.47581,24.057l-.16087-.4951-2.976.967V21.89793a.52059.52059,0,0,0-.52059-.52059h-.52059v3.1515l-2.4809-.8061a.52059.52059,0,0,0-.656.33423L10,24.55208l2.976.967L11.4296,27.6475a.52058.52058,0,0,0,.11518.72715l.42116.306,1.8524-2.5496,1.54641,2.12844a.52058.52058,0,0,0,.72715.11517l.42117-.306L14.66067,25.519l2.4809-.80609A.5206.5206,0,0,0,17.47581,24.057Z"/><path class="cls-1" d="M28.72509,24.057l-.16087-.4951-2.976.967V21.89793a.52058.52058,0,0,0-.52058-.52059H24.547v3.1515l-2.4809-.8061a.52059.52059,0,0,0-.656.33423l-.16087.49511,2.976.967L22.67889,27.6475a.52058.52058,0,0,0,.11517.72715l.42117.306,1.8524-2.5496,1.5464,2.12844a.52059.52059,0,0,0,.72716.11517l.42117-.306L25.91,25.519l2.4809-.80609A.52058.52058,0,0,0,28.72509,24.057Z"/><path class="cls-1" d="M39.97438,24.057l-.16087-.4951-2.976.967V21.89793a.52058.52058,0,0,0-.52059-.52059h-.52058v3.1515l-2.48091-.8061a.52058.52058,0,0,0-.656.33423l-.16088.49511,2.976.967-1.5464,2.12846a.52058.52058,0,0,0,.11517.72715l.42117.306,1.85239-2.5496,1.54641,2.12844a.52058.52058,0,0,0,.72715.11517l.42117-.306L37.15924,25.519l2.4809-.80609A.52059.52059,0,0,0,39.97438,24.057Z"/></svg>