<svg id="Elementos" xmlns="http://www.w3.org/2000/svg" viewBox="0 0 50 50"><defs><style>.cls-1{fill:#23231a;}</style></defs><path class="cls-1" d="M30,28H40a0,0,0,0,1,0,0v4a0,0,0,0,1,0,0H28a0,0,0,0,1,0,0V30A2,2,0,0,1,30,28Z"/><path class="cls-1" d="M32,32H42a2,2,0,0,1,2,2v2a0,0,0,0,1,0,0H32a0,0,0,0,1,0,0V32A0,0,0,0,1,32,32Z" transform="translate(72 -4) rotate(90)"/><path class="cls-1" d="M35.57513,28a11.00035,11.00035,0,1,1-.56659-7.54607,1.97093,1.97093,0,0,0,2.33866,1.04335l2.086-.59176A15.00192,15.00192,0,1,0,39.69879,28Z"/></svg>