<svg id="Elementos" xmlns="http://www.w3.org/2000/svg" viewBox="0 0 50 50"><defs><style>.cls-1{fill:#23231a;}</style></defs><path class="cls-1" d="M36.63293,22.10211a11.90865,11.90865,0,0,0-1.35839-3.2782l.97644-1.68652a2.00011,2.00011,0,0,0-.31665-2.41632l-1.742-1.74188-3.01629,1.74627a11.91049,11.91049,0,0,0-3.2782-1.35839l-.502-1.88239A2,2,0,0,0,25.46344,10H23l-.89789,3.36707a11.90851,11.90851,0,0,0-3.2782,1.35833L17.13739,13.749a2,2,0,0,0-2.41626.31665l-1.74194,1.74195,1.74627,3.01623a11.909,11.909,0,0,0-1.35839,3.27826l-1.88239.502A2,2,0,0,0,10,24.53656V27l3.36707.89789a11.90865,11.90865,0,0,0,1.35839,3.2782L13.749,32.86261a2,2,0,0,0,.31665,2.41626l1.74195,1.74194,3.01629-1.74627a11.90865,11.90865,0,0,0,3.2782,1.35839l.502,1.88239A2,2,0,0,0,24.53656,40H27l.89789-3.36707a11.90865,11.90865,0,0,0,3.2782-1.35839l1.68652.97638a1.99993,1.99993,0,0,0,2.41626-.31665l1.74194-1.74189-1.74627-3.01629a11.90826,11.90826,0,0,0,1.35839-3.27826l1.88239-.502A2,2,0,0,0,40,25.46344V23ZM25,33a8,8,0,1,1,8-8A8,8,0,0,1,25,33Z"/><path class="cls-1" d="M25.32263,20.01038a5,5,0,1,0,4.66693,5.31219A5,5,0,0,0,25.32263,20.01038Z"/></svg>