<svg id="Elementos" xmlns="http://www.w3.org/2000/svg" viewBox="0 0 50 50"><defs><style>.cls-1{fill:#f5f8fc;}</style></defs><path class="cls-1" d="M18,36v2H30a2,2,0,0,0,2-2V34H20A2,2,0,0,0,18,36Z"/><path class="cls-1" d="M27,12a2,2,0,0,0-2-2H12a2,2,0,0,0-2,2V40h2a2,2,0,0,0,2-2V14H27Z"/><path class="cls-1" d="M18,28v2H30a2,2,0,0,0,2-2V26H20A2,2,0,0,0,18,28Z"/><path class="cls-1" d="M18,20v2H30a2,2,0,0,0,2-2V18H20A2,2,0,0,0,18,20Z"/><path class="cls-1" d="M38,23H36V38a2,2,0,0,0,2,2h2V25A2,2,0,0,0,38,23Z"/><path class="cls-1" d="M40,10V7a2,2,0,0,0-2-2H36v5H33a2,2,0,0,0-2,2v2h5v3a2,2,0,0,0,2,2h2V14h3a2,2,0,0,0,2-2V10Z"/></svg>