<svg id="Elementos" xmlns="http://www.w3.org/2000/svg" viewBox="0 0 50 50"><defs><style>.cls-1{fill:#f5f8fc;}</style></defs><path class="cls-1" d="M40,40H38a2,2,0,0,1-2-2V22h2a2,2,0,0,1,2,2ZM14,10H12a2,2,0,0,0-2,2V40h2a2,2,0,0,0,2-2V14H30V12a2,2,0,0,0-2-2Zm27.17157-.58577L38.34314,6.5858a1.99989,1.99989,0,0,0-2.82837,0L34.10052,8l4.24262,4.24268-2.82837,2.82843a2,2,0,0,0,0,2.82843L36.929,19.31371l4.24261-4.24262L44,12.24266ZM32,20V18H20a2,2,0,0,0-2,2v2H30A2,2,0,0,0,32,20Zm0,8V26H20a2,2,0,0,0-2,2v2H30A2,2,0,0,0,32,28Zm0,8V34H20a2,2,0,0,0-2,2v2H30A2,2,0,0,0,32,36Z"/></svg>