<svg id="Elementos" xmlns="http://www.w3.org/2000/svg" viewBox="0 0 50 50"><defs><style>.cls-1{fill:#f5f8fc;}</style></defs><path class="cls-1" d="M25,21.3295a4.00108,4.00108,0,0,1,2.058.57L32.2254,25,27.058,28.10046a4.00014,4.00014,0,0,1-4.116,0L17.7746,25,22.942,21.89954a4.00108,4.00108,0,0,1,2.058-.57m0-4a7.99419,7.99419,0,0,0-4.116,1.14007L10,25l10.884,6.53043a7.99993,7.99993,0,0,0,8.23194,0L40,25,29.116,18.46957A7.99419,7.99419,0,0,0,25,17.3295ZM27,25h0a2,2,0,0,0-2-2h0a2,2,0,0,0-2,2h0a2,2,0,0,0,2,2h0A2,2,0,0,0,27,25Z"/></svg>