<svg id="Elementos" xmlns="http://www.w3.org/2000/svg" xmlns:xlink="http://www.w3.org/1999/xlink" viewBox="0 0 50 50"><defs><style>.cls-1{fill:none;}.cls-2{fill:#2e3192;}.cls-3{clip-path:url(#clip-path);}.cls-4{fill:#f5f8fc;}.cls-5{fill:#c1272d;}</style><clipPath id="clip-path"><path class="cls-1" d="M12,16H40a0,0,0,0,1,0,0V32a2,2,0,0,1-2,2H10a0,0,0,0,1,0,0V18A2,2,0,0,1,12,16Z"/></clipPath></defs><path class="cls-2" d="M12,16H40a0,0,0,0,1,0,0V32a2,2,0,0,1-2,2H10a0,0,0,0,1,0,0V18A2,2,0,0,1,12,16Z"/><g class="cls-3"><polygon class="cls-4" points="40 28 40 22 35.208 22 42.004 17.627 38.758 12.581 28 19.503 28 16 22 16 22 19.503 11.242 12.581 7.995 17.627 14.792 22 10 22 10 28 14.792 28 7.995 32.373 11.242 37.419 22 30.497 22 34 28 34 28 30.497 38.758 37.419 42.004 32.373 35.208 28 40 28"/></g><g class="cls-3"><polygon class="cls-5" points="40 26 40 24 28.402 24 40.922 15.945 39.84 14.263 26 23.167 26 16 24 16 24 23.167 10.16 14.263 9.078 15.945 21.598 24 10 24 10 26 21.597 26 9.078 34.055 10.16 35.736 24 26.832 24 34 26 34 26 26.832 39.84 35.736 40.922 34.055 28.403 26 40 26"/></g></svg>